<svg xmlns="http://www.w3.org/2000/svg" xmlns:xlink="http://www.w3.org/1999/xlink" version="1.1" x="0px" y="0px" viewBox="0 0 100 125" enable-background="new 0 0 100 100" xml:space="preserve"><path fill="#ffffff" d="M48,76c0-1.104,0.896-2,2-2l0,0c1.104,0,2,0.896,2,2v8c0,1.104-0.896,2-2,2l0,0c-1.104,0-2-0.896-2-2V76z   M37.063,60.063c-0.341,3.132,0.688,6.385,3.089,8.786c2.4,2.398,5.651,3.428,8.784,3.087c0.34-3.13-0.688-6.385-3.088-8.784  C43.447,60.752,40.195,59.725,37.063,60.063z M54.152,63.152c-2.4,2.399-3.43,5.654-3.089,8.784  c3.133,0.341,6.384-0.688,8.784-3.087c2.401-2.401,3.43-5.654,3.089-8.786C59.805,59.725,56.553,60.752,54.152,63.152z   M37.063,49.063c-0.341,3.132,0.688,6.385,3.089,8.786c2.4,2.398,5.651,3.428,8.784,3.087c0.34-3.13-0.688-6.385-3.088-8.784  C43.447,49.752,40.195,48.725,37.063,49.063z M54.152,52.152c-2.4,2.399-3.43,5.654-3.089,8.784  c3.133,0.341,6.384-0.688,8.784-3.087c2.401-2.401,3.43-5.654,3.089-8.786C59.805,48.725,56.553,49.752,54.152,52.152z   M37.063,38.063c-0.341,3.132,0.688,6.385,3.089,8.786c2.4,2.398,5.651,3.428,8.784,3.087c0.34-3.13-0.688-6.385-3.088-8.784  C43.447,38.752,40.195,37.725,37.063,38.063z M54.152,41.152c-2.4,2.399-3.43,5.654-3.089,8.784  c3.133,0.341,6.384-0.688,8.784-3.087c2.401-2.401,3.43-5.654,3.089-8.786C59.805,37.725,56.553,38.752,54.152,41.152z   M37.063,27.063c-0.341,3.132,0.688,6.385,3.089,8.786c2.4,2.398,5.651,3.428,8.784,3.087c0.34-3.13-0.688-6.385-3.088-8.784  C43.447,27.752,40.195,26.725,37.063,27.063z M54.152,30.152c-2.4,2.399-3.43,5.654-3.089,8.784  c3.133,0.341,6.384-0.688,8.784-3.087c2.401-2.401,3.43-5.654,3.089-8.786C59.805,26.725,56.553,27.752,54.152,30.152z M50,15  c-2.455,1.974-4.028,5.001-4.028,8.397c0.002,3.393,1.572,6.419,4.028,8.394c2.454-1.972,4.028-5.001,4.028-8.395  C54.027,20,52.454,16.975,50,15z"/></svg>