<svg xmlns="http://www.w3.org/2000/svg" xmlns:xlink="http://www.w3.org/1999/xlink" version="1.1" x="0px" y="0px" viewBox="0 0 100 125" enable-background="new 0 0 100 100" xml:space="preserve"><path fill="#ffffff" d="M52.266,70.7c1.213,1.359,2.557,2.599,4.022,3.702c-1.355,3.406-3.48,6.485-6.288,8.992  c-2.806-2.506-4.938-5.581-6.295-8.985c1.468-1.105,2.815-2.347,4.029-3.708c0.341,0.294,0.676,0.595,1.033,0.874L50,72.539  l1.232-0.964C51.59,71.295,51.925,70.995,52.266,70.7z M62.326,73.483c2.088-3.188,3.351-6.761,3.762-10.449  c-2.143-0.908-4.142-2.059-5.96-3.431c-1.165,3.023-2.87,5.816-5.028,8.284C57.103,70.172,59.54,72.078,62.326,73.483z   M52.562,50.841c-0.536,0.327-1.079,0.642-1.638,0.933L50,52.256l-0.925-0.482c-0.559-0.291-1.103-0.606-1.639-0.934  c-1.19,2.157-2.63,4.143-4.316,5.891c1.279,4.07,3.62,7.752,6.879,10.664c3.259-2.911,5.605-6.589,6.883-10.66  C55.194,54.986,53.753,52.999,52.562,50.841z M33.913,63.033c0.413,3.689,1.673,7.263,3.761,10.45  c2.787-1.406,5.221-3.313,7.224-5.598c-2.156-2.468-3.859-5.262-5.024-8.284C38.056,60.975,36.057,62.125,33.913,63.033z   M44.177,48.506c-1.814-1.503-3.445-3.227-4.837-5.147c-3.142,2.068-6.621,3.442-10.283,4.107  c-0.137,4.167,0.813,8.321,2.834,12.086C37.218,57.424,41.531,53.524,44.177,48.506z M55.821,48.507  c2.647,5.018,6.96,8.917,12.287,11.044c2.021-3.764,2.976-7.919,2.839-12.085c-3.664-0.665-7.145-2.039-10.287-4.108  C59.268,45.28,57.636,47.004,55.821,48.507z M52,22.032V18c0-1.104-0.896-2-2-2s-2,0.896-2,2v4.032  c-11.611,0.964-20.905,10.216-21.91,21.815c4.569-0.391,8.871-2.063,12.545-4.896l1.76-1.357l1.165,1.893  c2.1,3.413,5.003,6.241,8.44,8.231c3.437-1.99,6.341-4.818,8.44-8.231l1.164-1.893l1.76,1.357c3.676,2.833,7.977,4.506,12.546,4.896  C72.906,32.249,63.611,22.997,52,22.032z"/></svg>